<?xml version="1.0" encoding="UTF-8" standalone="no"?>
<svg width="533.33" xmlns="http://www.w3.org/2000/svg" xmlns:xlink="http://www.w3.org/1999/xlink" height="533.33">
 <defs>
  <linearGradient id="linearGradient4508" y2=".89140" xlink:href="#linearGradient1533" x2=".14560" y1=".16577" x1=".78666"/>
  <linearGradient id="linearGradient4506" y2=".81051" xlink:href="#linearGradient1533" x2=".16774" y1=".10559" x1=".83225"/>
  <linearGradient id="linearGradient1514" y2=".045334" xlink:href="#linearGradient1452" x2=".59744" y1=".79539" x1=".47090"/>
  <linearGradient id="linearGradient4470" y2=".077275" xlink:href="#linearGradient1516" x2=".097815" y1=".75188" x1=".80434"/>
  <linearGradient id="linearGradient4468" y2=".89140" xlink:href="#linearGradient1516" x2=".14560" y1=".16577" x1=".78666"/>
  <linearGradient id="linearGradient4448" y2=".89140" xlink:href="#linearGradient1541" x2=".14560" y1=".16577" x1=".78666"/>
  <linearGradient id="linearGradient4466" y2=".81051" xlink:href="#linearGradient1516" x2=".16774" y1=".10559" x1=".83225"/>
  <linearGradient id="linearGradient4450" y2=".077275" xlink:href="#linearGradient1541" x2=".097815" y1=".75188" x1=".80434"/>
  <linearGradient id="linearGradient4510" y2=".077275" xlink:href="#linearGradient1533" x2=".097815" y1=".75188" x1=".80434"/>
  <linearGradient id="linearGradient1512" y2=".091715" xlink:href="#linearGradient1452" x2=".078771" y1=".83634" x1=".85483"/>
  <linearGradient id="linearGradient1510" y2=".42691" xlink:href="#linearGradient1452" x2=".12296" y1=".56460" x1=".91730"/>
  <linearGradient id="linearGradient4526" y2=".81051" xlink:href="#linearGradient1496" x2=".16774" y1=".10559" x1=".83225"/>
  <linearGradient id="linearGradient1508" y2=".045334" xlink:href="#linearGradient1480" x2=".59742" y1=".79539" x1=".47088"/>
  <linearGradient id="linearGradient1506" y2=".091715" xlink:href="#linearGradient1480" x2=".078751" y1=".83634" x1=".85485"/>
  <linearGradient id="linearGradient4528" y2=".89140" xlink:href="#linearGradient1496" x2=".14560" y1=".16577" x1=".78666"/>
  <linearGradient id="linearGradient1504" y2=".39468" xlink:href="#linearGradient1480" x2=".15640" y1=".57082" x1=".91196"/>
  <linearGradient id="linearGradient4530" y2=".077275" xlink:href="#linearGradient1496" x2=".097815" y1=".75188" x1=".80434"/>
  <linearGradient id="linearGradient4446" y2=".81051" xlink:href="#linearGradient1541" x2=".16774" y1=".10559" x1=".83225"/>
  <linearGradient id="linearGradient1480">
   <stop id="stop1482" stop-color="#a9a9a9" offset="0"/>
   <stop id="stop1484" stop-color="#727272" offset="1"/>
  </linearGradient>
  <linearGradient id="linearGradient1496">
   <stop id="stop1498" stop-color="#f3c250" offset="0"/>
   <stop id="stop1500" stop-color="#bd880d" offset="1"/>
  </linearGradient>
  <linearGradient id="linearGradient4430" y2=".077275" xlink:href="#linearGradient2198" x2=".097815" y1=".75188" x1=".80434"/>
  <linearGradient id="linearGradient1516">
   <stop id="stop1518" stop-color="#46f146" offset="0"/>
   <stop id="stop1520" stop-color="#0dab0d" offset="1"/>
  </linearGradient>
  <linearGradient id="linearGradient1524">
   <stop id="stop1526" stop-color="#f0ec5e" offset="0"/>
   <stop id="stop1528" stop-color="#c7c212" offset="1"/>
  </linearGradient>
  <linearGradient id="linearGradient1549">
   <stop id="stop1551" stop-color="#37ede9" offset="0"/>
   <stop id="stop1553" stop-color="#0fb0ac" offset="1"/>
  </linearGradient>
  <linearGradient id="linearGradient1533">
   <stop id="stop1535" stop-color="#c52dc7" offset="0"/>
   <stop id="stop1537" stop-color="#821e83" offset="1"/>
  </linearGradient>
  <linearGradient id="linearGradient1541">
   <stop id="stop1543" stop-color="#ef4ca4" offset="0"/>
   <stop id="stop1545" stop-color="#a20e5e" offset="1"/>
  </linearGradient>
  <linearGradient id="linearGradient1452">
   <stop id="stop1454" stop-color="#4545ef" offset="0"/>
   <stop id="stop1456" stop-color="#1110b3" offset="1"/>
  </linearGradient>
  <linearGradient id="linearGradient2198">
   <stop id="stop2200" stop-color="#ff3c49" offset="0"/>
   <stop id="stop2202" stop-color="#b4000c" offset="1"/>
  </linearGradient>
  <linearGradient id="linearGradient4410" y2=".077275" xlink:href="#linearGradient1524" x2=".097815" y1=".75188" x1=".80434"/>
  <linearGradient id="linearGradient4428" y2=".89140" xlink:href="#linearGradient2198" x2=".14560" y1=".16577" x1=".78666"/>
  <linearGradient id="linearGradient4426" y2=".81051" xlink:href="#linearGradient2198" x2=".16774" y1=".10559" x1=".83225"/>
  <linearGradient id="linearGradient4408" y2=".89140" xlink:href="#linearGradient1524" x2=".14560" y1=".16577" x1=".78666"/>
  <linearGradient id="linearGradient4406" y2=".81051" xlink:href="#linearGradient1524" x2=".16774" y1=".10559" x1=".83225"/>
  <linearGradient id="linearGradient4386" y2=".81051" xlink:href="#linearGradient1549" x2=".16774" y1=".10559" x1=".83225"/>
  <linearGradient id="linearGradient4390" y2=".077275" xlink:href="#linearGradient1549" x2=".097815" y1=".75188" x1=".80434"/>
  <linearGradient id="linearGradient4388" y2=".89140" xlink:href="#linearGradient1549" x2=".14560" y1=".16577" x1=".78666"/>
 </defs>
 <g stroke-linejoin="bevel">
  <g id="g1458">
   <g fill-opacity=".376">
    <path id="path4352" d="m220.33 91.213c-0.097473-0.15729-0.19936-0.30287-0.29874-0.45947-3.7164-5.8554-8.743-11.174-13.449-13.852l-34.283-19.512c-7.3904-4.2044-25.643-1.3259-33.574 3.4214l-47.588 28.486c-9.2707 5.5494-14.38 17.196-11.461 26.129l16.509 50.517c2.9187 8.9327 10.673 19.084 15.685 21.409l37.166 17.248c5.0123 2.3256 16.505-0.26552 25.776-5.8149l47.588-28.486c7.786-4.6606 19.91-14.622 15.565-25.294l-13.135-44.099c-0.93881-3.1497-2.5177-6.4951-4.4999-9.6934z"/>
    <path id="path3477" d="m218.06 90.456c-0.097473-0.1573-0.19934-0.30288-0.29875-0.45948-3.7163-5.8555-8.743-11.174-13.449-13.852l-34.283-19.512c-7.3904-4.2044-25.643-1.3259-33.574 3.4214l-47.588 28.486c-9.2708 5.5494-14.38 17.196-11.461 26.129l16.509 50.517c2.9187 8.9327 10.673 19.084 15.685 21.409l37.166 17.248c5.0123 2.3256 16.505-0.26552 25.776-5.8149l47.588-28.486c7.786-4.6606 19.91-14.622 15.565-25.294l-13.135-44.099c-0.9388-3.1497-2.5176-6.4951-4.4999-9.6934z"/>
   </g>
   <path id="rect1315" fill="#1615e3" d="m215.79 89.7c-0.097473-0.1573-0.19934-0.30287-0.29874-0.45947-3.7164-5.8555-8.743-11.174-13.449-13.852l-34.283-19.512c-7.3905-4.2044-25.643-1.3259-33.574 3.4214l-47.588 28.486c-9.2707 5.5494-14.38 17.196-11.461 26.129l16.509 50.517c2.9187 8.9327 10.673 19.084 15.685 21.409l37.166 17.248c5.0123 2.3256 16.505-0.26552 25.776-5.8149l47.588-28.486c7.786-4.6606 19.91-14.622 15.565-25.294l-13.135-44.099c-0.93881-3.1497-2.5176-6.4951-4.4999-9.6934z"/>
   <path id="rect1309" fill="url(#linearGradient1510)" d="m156.17 65.322l16.554 50.663c2.9042 8.8885-1.4642 20.059-9.7946 25.045l-50.982 30.517c-8.3305 4.9865-17.375 1.8452-20.279-7.0433l-16.554-50.663c-2.9042-8.8885 1.4642-20.059 9.7946-25.045l50.982-30.517c8.3305-4.9865 17.375-1.8452 20.279 7.0433z"/>
   <path id="rect1311" fill="url(#linearGradient1512)" d="m220.26 99.299l13.201 44.29c2.6947 9.0406-0.94368 13.015-8.1577 8.9108l-34.935-19.874c-7.214-4.104-15.191-14.686-17.886-23.727l-13.201-44.29c-2.6947-9.0406 0.94366-13.015 8.1577-8.9108l34.935 19.874c7.214 4.104 15.191 14.686 17.886 23.727z"/>
   <path id="rect1313" fill="url(#linearGradient1514)" d="m188.1 137.19l37.737 17.509c4.8554 2.2528 2.0578 8.0808-6.2727 13.067l-50.982 30.517c-8.3305 4.9865-18.946 7.1873-23.801 4.9345l-37.737-17.509c-4.8554-2.2528-2.0578-8.0808 6.2727-13.067l50.982-30.517c8.3305-4.9865 18.946-7.1873 23.801-4.9345z"/>
  </g>
  <g id="use4356" transform="matrix(.28240 .46926 -0.504 .30169 232.97 -53.054)">
   <g fill-opacity=".376">
    <path id="path4514" d="m323.63 224.28c-0.33786 0.00412-0.66147 0.024902-1 0.03241-12.659 0.28076-25.706 2.9438-34.312 7.4577l-62.719 32.879c-13.518 7.0894-26.125 36.241-26.125 51.977v94.421c0 18.394 13.456 36.071 30.188 39.656l94.625 20.266c16.732 3.5842 39.906 1.1843 48.25-4.0855l61.875-39.072c8.3438-5.2698 15.062-24.309 15.062-42.703v-94.421c0-15.448-4.2376-41.878-25.031-44.908l-81.406-19.552c-5.8149-1.3955-12.537-2.0293-19.406-1.9455z"/>
    <path id="path4516" d="m320.32 226.93c-0.33783 0.00412-0.66144 0.024933-1 0.03244-12.659 0.28073-25.706 2.9438-34.312 7.4577l-62.719 32.879c-13.518 7.0894-26.125 36.241-26.125 51.977v94.421c0 18.394 13.456 36.071 30.188 39.656l94.625 20.266c16.732 3.5842 39.906 1.1843 48.25-4.0855l61.875-39.072c8.3438-5.2698 15.062-24.309 15.062-42.704v-94.421c0-15.448-4.2376-41.878-25.031-44.908l-81.406-19.552c-5.8148-1.3955-12.537-2.0292-19.406-1.9455z"/>
   </g>
   <path id="path4518" fill="#eead15" d="m317.01 229.58c-0.33786 0.00412-0.66144 0.024902-1 0.03241-12.659 0.28076-25.706 2.9438-34.312 7.4577l-62.719 32.879c-13.518 7.0895-26.125 36.241-26.125 51.977v94.421c0 18.394 13.456 36.071 30.188 39.656l94.625 20.266c16.732 3.5841 39.906 1.1842 48.25-4.0856l61.875-39.072c8.3438-5.2697 15.062-24.309 15.062-42.703v-94.421c0-15.448-4.2376-41.878-25.031-44.908l-81.406-19.552c-5.8148-1.3955-12.537-2.0292-19.406-1.9455z"/>
   <path id="path4520" fill="url(#linearGradient4526)" d="m222.9 295.14l94.896 20.328c16.649 3.5664 30.052 19.744 30.052 36.273v101.16c0 16.529-13.403 26.964-30.052 23.398l-94.896-20.328c-16.649-3.5664-30.052-19.744-30.052-36.273v-101.16c0-16.529 13.403-26.964 30.052-23.398z"/>
   <path id="path4522" fill="url(#linearGradient4528)" d="m336.23 231.49l81.767 19.624c16.691 4.0056 19.505 12.802 6.31 19.722l-63.897 33.512c-13.195 6.9202-37.254 9.2667-53.945 5.261l-81.767-19.624c-16.691-4.0056-19.505-12.802-6.3099-19.722l63.897-33.512c13.195-6.9202 37.254-9.2667 53.945-5.261z"/>
   <path id="path4524" fill="url(#linearGradient4530)" d="m365.44 311.66l62.821-39.676c8.0827-5.1049 14.59 4.092 14.59 20.621v101.16c0 16.529-6.507 33.945-14.59 39.05l-62.821 39.676c-8.0827 5.1048-14.59-4.0921-14.59-20.621v-101.16c0-16.529 6.507-33.945 14.59-39.05z"/>
  </g>
  <g id="use4358" transform="matrix(.28240 .46926 -0.504 .30169 233.97 106.21)">
   <g fill-opacity=".376">
    <path id="path4494" d="m140.13 224.64c-0.33786 0.00412-0.66147 0.024902-1 0.03241-12.659 0.28076-25.706 2.9438-34.312 7.4577l-62.719 32.879c-13.518 7.0894-26.125 36.241-26.125 51.977v94.421c0 18.394 13.456 36.071 30.188 39.656l94.625 20.266c16.732 3.5842 39.906 1.1843 48.25-4.0855l61.875-39.072c8.3438-5.2698 15.062-24.309 15.062-42.704v-94.421c0-15.448-4.2376-41.878-25.031-44.908l-81.406-19.552c-5.8149-1.3955-12.537-2.0293-19.406-1.9455z"/>
    <path id="path4496" d="m136.82 227.29c-0.33783 0.00412-0.66144 0.024933-1 0.03244-12.659 0.28073-25.706 2.9438-34.312 7.4577l-62.719 32.879c-13.518 7.0894-26.125 36.241-26.125 51.977v94.421c0 18.394 13.456 36.071 30.188 39.656l94.625 20.266c16.732 3.5842 39.906 1.1843 48.25-4.0855l61.875-39.072c8.3438-5.2698 15.062-24.309 15.062-42.704v-94.421c0-15.448-4.2376-41.878-25.031-44.908l-81.406-19.552c-5.8148-1.3955-12.537-2.0292-19.406-1.9455z"/>
   </g>
   <path id="path4498" fill="#9c249d" d="m133.51 229.93c-0.33786 0.00412-0.66144 0.024902-1 0.03241-12.659 0.28076-25.706 2.9438-34.312 7.4577l-62.719 32.879c-13.518 7.0894-26.125 36.241-26.125 51.977v94.421c0 18.394 13.456 36.071 30.188 39.656l94.625 20.266c16.732 3.5841 39.906 1.1842 48.25-4.0856l61.875-39.072c8.3438-5.2697 15.062-24.309 15.062-42.703v-94.421c0-15.448-4.2375-41.878-25.031-44.908l-81.406-19.552c-5.8148-1.3955-12.537-2.0292-19.406-1.9455z"/>
   <path id="path4500" fill="url(#linearGradient4506)" d="m39.404 295.5l94.896 20.328c16.649 3.5664 30.052 19.744 30.052 36.273v101.16c0 16.529-13.403 26.964-30.052 23.398l-94.896-20.328c-16.649-3.5664-30.052-19.744-30.052-36.273v-101.16c0-16.529 13.403-26.964 30.052-23.398z"/>
   <path id="path4502" fill="url(#linearGradient4508)" d="m152.73 231.84l81.767 19.624c16.691 4.0056 19.505 12.802 6.31 19.722l-63.897 33.512c-13.195 6.9202-37.254 9.2667-53.945 5.261l-81.767-19.624c-16.691-4.0056-19.505-12.802-6.3099-19.722l63.897-33.512c13.195-6.9202 37.254-9.2667 53.945-5.261z"/>
   <path id="path4504" fill="url(#linearGradient4510)" d="m181.94 312.01l62.821-39.676c8.0827-5.1048 14.59 4.0921 14.59 20.621v101.16c0 16.529-6.507 33.945-14.59 39.05l-62.821 39.676c-8.0827 5.1048-14.59-4.0921-14.59-20.621v-101.16c0-16.529 6.507-33.945 14.59-39.05z"/>
  </g>
  <g id="g1488">
   <g fill-opacity=".376">
    <path id="path4474" d="m360.46 118.21c-0.097504-0.15729-0.19937-0.30287-0.29874-0.45947-3.7164-5.8554-8.743-11.174-13.449-13.852l-34.283-19.512c-7.3904-4.2044-25.643-1.3259-33.574 3.4214l-47.588 28.486c-9.2708 5.5494-14.38 17.196-11.461 26.129l16.509 50.517c2.9187 8.9327 10.673 19.084 15.685 21.409l37.166 17.248c5.0123 2.3256 16.505-0.26552 25.776-5.8149l47.588-28.486c7.786-4.6606 19.91-14.622 15.565-25.294l-13.135-44.099c-0.93881-3.1497-2.5177-6.4951-4.4999-9.6934z"/>
    <path id="path4476" d="m358.19 117.46c-0.097473-0.1573-0.19934-0.30288-0.29874-0.45948-3.7164-5.8555-8.743-11.174-13.449-13.852l-34.283-19.512c-7.3904-4.2044-25.643-1.3259-33.574 3.4214l-47.588 28.486c-9.2708 5.5494-14.38 17.196-11.461 26.129l16.509 50.517c2.9187 8.9327 10.673 19.084 15.685 21.409l37.166 17.248c5.0123 2.3256 16.505-0.26552 25.776-5.8149l47.588-28.486c7.786-4.6606 19.91-14.622 15.565-25.294l-13.135-44.099c-0.93878-3.1497-2.5176-6.4951-4.4999-9.6934z"/>
   </g>
   <path id="path4478" fill="#919191" d="m355.92 116.7c-0.097473-0.1573-0.19934-0.30287-0.29877-0.45947-3.7163-5.8555-8.743-11.174-13.449-13.852l-34.283-19.512c-7.3904-4.2044-25.643-1.3259-33.574 3.4214l-47.588 28.486c-9.2708 5.5494-14.38 17.196-11.461 26.129l16.509 50.517c2.9187 8.9327 10.673 19.084 15.685 21.409l37.166 17.248c5.0123 2.3256 16.505-0.26552 25.776-5.8149l47.588-28.486c7.786-4.6606 19.91-14.622 15.565-25.294l-13.135-44.099c-0.93881-3.1497-2.5176-6.4951-4.4999-9.6934z"/>
   <path id="path4480" fill="url(#linearGradient1504)" d="m296.3 92.322l16.554 50.663c2.9043 8.8885-1.4641 20.059-9.7946 25.045l-50.982 30.517c-8.3305 4.9865-17.375 1.8452-20.279-7.0433l-16.554-50.663c-2.9042-8.8885 1.4642-20.059 9.7946-25.045l50.982-30.517c8.3305-4.9865 17.375-1.8452 20.279 7.0433z"/>
   <path id="path4482" fill="url(#linearGradient1506)" d="m360.39 126.3l13.201 44.29c2.6947 9.0406-0.9437 13.015-8.1577 8.9108l-34.935-19.874c-7.214-4.104-15.191-14.686-17.886-23.727l-13.201-44.29c-2.6947-9.0406 0.94366-13.015 8.1577-8.9108l34.935 19.874c7.214 4.104 15.191 14.686 17.886 23.727z"/>
   <path id="path4484" fill="url(#linearGradient1508)" d="m328.23 164.19l37.737 17.509c4.8554 2.2528 2.0578 8.0808-6.2727 13.067l-50.982 30.517c-8.3305 4.9865-18.946 7.1873-23.801 4.9345l-37.737-17.509c-4.8554-2.2528-2.0578-8.0808 6.2727-13.067l50.982-30.517c8.3305-4.9865 18.946-7.1873 23.801-4.9345z"/>
  </g>
  <g id="use4362" transform="rotate(32.863 272.84 262.58) matrix(.28240 .46926 -0.504 .30169 393.1 -53.054)">
   <g fill-opacity=".376">
    <path id="path4454" d="m384.18 325.67c-0.33786 0.00412-0.66147 0.024902-1 0.03241-12.659 0.28076-25.706 2.9438-34.312 7.4577l-62.719 32.879c-13.518 7.0894-26.125 36.241-26.125 51.977v94.421c0 18.394 13.456 36.071 30.188 39.656l94.625 20.266c16.732 3.5842 39.906 1.1843 48.25-4.0855l61.875-39.072c8.3438-5.2698 15.062-24.309 15.062-42.703v-94.421c0-15.448-4.2376-41.878-25.031-44.908l-81.406-19.552c-5.8149-1.3955-12.537-2.0293-19.406-1.9455z"/>
    <path id="path4456" d="m380.87 328.32c-0.33783 0.00412-0.66144 0.024933-1 0.03244-12.659 0.28073-25.706 2.9438-34.312 7.4577l-62.719 32.879c-13.518 7.0894-26.125 36.241-26.125 51.977v94.421c0 18.394 13.456 36.071 30.188 39.656l94.625 20.266c16.732 3.5842 39.906 1.1843 48.25-4.0855l61.875-39.072c8.3438-5.2698 15.062-24.309 15.062-42.703v-94.421c0-15.448-4.2376-41.878-25.031-44.908l-81.406-19.552c-5.8148-1.3955-12.537-2.0292-19.406-1.9455z"/>
   </g>
   <path id="path4458" fill="#15ed15" d="m377.55 330.96c-0.33786 0.00412-0.66144 0.024902-1 0.03241-12.659 0.28076-25.706 2.9438-34.312 7.4577l-62.719 32.879c-13.518 7.0894-26.125 36.241-26.125 51.977v94.421c0 18.394 13.456 36.071 30.188 39.656l94.625 20.266c16.732 3.5841 39.906 1.1842 48.25-4.0856l61.875-39.072c8.3438-5.2697 15.062-24.309 15.062-42.703v-94.421c0-15.448-4.2376-41.878-25.031-44.908l-81.406-19.552c-5.8148-1.3955-12.537-2.0292-19.406-1.9455z"/>
   <path id="path4460" fill="url(#linearGradient4466)" d="m283.45 396.53l94.896 20.328c16.649 3.5664 30.052 19.744 30.052 36.273v101.16c0 16.529-13.403 26.964-30.052 23.398l-94.896-20.328c-16.649-3.5663-30.052-19.744-30.052-36.273v-101.16c0-16.529 13.403-26.964 30.052-23.398z"/>
   <path id="path4462" fill="url(#linearGradient4468)" d="m396.78 332.88l81.767 19.624c16.691 4.0056 19.505 12.802 6.31 19.722l-63.897 33.512c-13.195 6.9202-37.254 9.2667-53.945 5.261l-81.767-19.624c-16.691-4.0056-19.505-12.802-6.3099-19.722l63.897-33.512c13.195-6.9202 37.254-9.2667 53.945-5.261z"/>
   <path id="path4464" fill="url(#linearGradient4470)" d="m425.99 413.04l62.821-39.676c8.0827-5.1048 14.59 4.0921 14.59 20.621v101.16c0 16.529-6.507 33.945-14.59 39.05l-62.821 39.676c-8.0827 5.1048-14.59-4.0921-14.59-20.621v-101.16c0-16.529 6.507-33.945 14.59-39.05z"/>
  </g>
  <g id="use4364" transform="matrix(.28240 .46926 -0.504 .30169 394.1 106.21)">
   <g fill-opacity=".376">
    <path id="path4434" d="m139.28 305.51c-0.33786 0.004089-0.66147 0.024902-1 0.03241-12.659 0.28076-25.706 2.9437-34.312 7.4577l-62.719 32.879c-13.518 7.0895-26.125 36.241-26.125 51.977v94.421c0 18.394 13.456 36.071 30.188 39.656l94.625 20.266c16.732 3.5842 39.906 1.1843 48.25-4.0855l61.875-39.072c8.3438-5.2698 15.062-24.309 15.062-42.704v-94.421c0-15.448-4.2376-41.878-25.031-44.908l-81.406-19.552c-5.8149-1.3956-12.537-2.0293-19.406-1.9455z"/>
    <path id="path4436" d="m135.97 308.16c-0.33783 0.00415-0.66144 0.024963-1 0.032471-12.659 0.2807-25.706 2.9437-34.312 7.4577l-62.719 32.879c-13.518 7.0894-26.125 36.241-26.125 51.977v94.421c0 18.394 13.456 36.071 30.188 39.656l94.625 20.266c16.732 3.5842 39.906 1.1843 48.25-4.0855l61.875-39.072c8.3438-5.2698 15.062-24.309 15.062-42.704v-94.421c0-15.448-4.2376-41.878-25.031-44.908l-81.406-19.552c-5.8148-1.3955-12.537-2.0292-19.406-1.9455z"/>
   </g>
   <path id="path4438" fill="#e91587" d="m132.66 310.81c-0.33786 0.00415-0.66144 0.024902-1 0.03241-12.659 0.28076-25.706 2.9438-34.312 7.4577l-62.719 32.879c-13.518 7.0894-26.125 36.241-26.125 51.977v94.421c0 18.394 13.456 36.071 30.188 39.656l94.625 20.266c16.732 3.5841 39.906 1.1842 48.25-4.0856l61.875-39.072c8.3438-5.2697 15.062-24.309 15.062-42.703v-94.421c0-15.448-4.2376-41.878-25.031-44.908l-81.406-19.552c-5.8148-1.3955-12.537-2.0292-19.406-1.9455z"/>
   <path id="path4440" fill="url(#linearGradient4446)" d="m38.554 376.37l94.896 20.328c16.649 3.5664 30.052 19.744 30.052 36.273v101.16c0 16.529-13.403 26.964-30.052 23.398l-94.896-20.328c-16.649-3.5663-30.052-19.744-30.052-36.273v-101.16c0-16.529 13.403-26.964 30.052-23.398z"/>
   <path id="path4442" fill="url(#linearGradient4448)" d="m151.88 312.72l81.767 19.624c16.691 4.0056 19.505 12.802 6.31 19.722l-63.897 33.512c-13.195 6.9202-37.254 9.2667-53.945 5.261l-81.767-19.624c-16.691-4.0056-19.505-12.802-6.3099-19.722l63.897-33.512c13.195-6.9202 37.254-9.2667 53.945-5.261z"/>
   <path id="path4444" fill="url(#linearGradient4450)" d="m181.09 392.89l62.821-39.676c8.0827-5.1048 14.59 4.0921 14.59 20.621v101.16c0 16.529-6.507 33.945-14.59 39.05l-62.821 39.676c-8.0827 5.1048-14.59-4.0921-14.59-20.621v-101.16c0-16.529 6.507-33.945 14.59-39.05z"/>
  </g>
  <g id="use4366" transform="matrix(.28240 .46926 -0.504 .30169 555.24 -213.32)">
   <g fill-opacity=".376">
    <path id="path4414" d="m432.91 501.79c-0.33786 0.004089-0.66147 0.024902-1 0.03241-12.659 0.28076-25.706 2.9437-34.312 7.4577l-62.719 32.879c-13.518 7.0895-26.125 36.241-26.125 51.977v94.421c0 18.394 13.456 36.071 30.188 39.656l94.625 20.266c16.732 3.5842 39.906 1.1843 48.25-4.0855l61.875-39.072c8.3438-5.2698 15.062-24.309 15.062-42.704v-94.421c0-15.448-4.2376-41.878-25.031-44.908l-81.406-19.552c-5.8149-1.3956-12.537-2.0293-19.406-1.9455z"/>
    <path id="path4416" d="m429.6 504.43c-0.33783 0.00415-0.66144 0.024963-1 0.032471-12.659 0.2807-25.706 2.9437-34.312 7.4577l-62.719 32.879c-13.518 7.0894-26.125 36.241-26.125 51.977v94.421c0 18.394 13.456 36.071 30.188 39.656l94.625 20.266c16.732 3.5842 39.906 1.1843 48.25-4.0855l61.875-39.072c8.3438-5.2698 15.062-24.309 15.062-42.704v-94.421c0-15.448-4.2376-41.878-25.031-44.908l-81.406-19.552c-5.8148-1.3955-12.537-2.0292-19.406-1.9455z"/>
   </g>
   <path id="path4418" fill="#e81525" d="m426.29 507.08c-0.33786 0.00415-0.66144 0.024902-1 0.03241-12.659 0.28076-25.706 2.9438-34.312 7.4577l-62.719 32.879c-13.518 7.0894-26.125 36.241-26.125 51.977v94.421c0 18.394 13.456 36.071 30.188 39.656l94.625 20.266c16.732 3.5841 39.906 1.1842 48.25-4.0856l61.875-39.072c8.3438-5.2697 15.062-24.309 15.062-42.703v-94.421c0-15.448-4.2376-41.878-25.031-44.908l-81.406-19.552c-5.8148-1.3955-12.537-2.0292-19.406-1.9455z"/>
   <path id="path4420" fill="url(#linearGradient4426)" d="m332.18 572.65l94.896 20.328c16.649 3.5664 30.052 19.744 30.052 36.273v101.16c0 16.529-13.403 26.964-30.052 23.398l-94.896-20.328c-16.649-3.5663-30.052-19.744-30.052-36.273v-101.16c0-16.529 13.403-26.964 30.052-23.398z"/>
   <path id="path4422" fill="url(#linearGradient4428)" d="m445.51 508.99l81.767 19.624c16.691 4.0056 19.505 12.802 6.31 19.722l-63.897 33.512c-13.195 6.9202-37.254 9.2667-53.945 5.261l-81.767-19.624c-16.691-4.0056-19.505-12.802-6.3099-19.722l63.897-33.512c13.195-6.9202 37.254-9.2667 53.945-5.261z"/>
   <path id="path4424" fill="url(#linearGradient4430)" d="m474.72 589.16l62.821-39.676c8.0826-5.1048 14.59 4.0921 14.59 20.621v101.16c0 16.529-6.5071 33.945-14.59 39.05l-62.821 39.676c-8.0827 5.1048-14.59-4.0921-14.59-20.621v-101.16c0-16.529 6.507-33.945 14.59-39.05z"/>
  </g>
  <g id="use4368" transform="matrix(.28240 .46926 -0.504 .30169 553.24 -53.054)">
   <g fill-opacity=".376">
    <path id="path4394" d="m415.15 579.14c-0.33786 0.00415-0.66147 0.024902-1 0.032471-12.659 0.28076-25.706 2.9437-34.312 7.4577l-62.719 32.879c-13.518 7.0895-26.125 36.241-26.125 51.977v94.421c0 18.394 13.456 36.071 30.188 39.656l94.625 20.266c16.732 3.5841 39.906 1.1842 48.25-4.0856l61.875-39.072c8.3439-5.2698 15.062-24.309 15.062-42.703v-94.421c0-15.448-4.2376-41.878-25.031-44.908l-81.406-19.552c-5.8149-1.3956-12.537-2.0293-19.406-1.9456z"/>
    <path id="path4396" d="m411.84 581.78c-0.33783 0.00415-0.66144 0.024902-1 0.032471-12.659 0.2807-25.706 2.9437-34.312 7.4576l-62.719 32.879c-13.518 7.0894-26.125 36.241-26.125 51.977v94.421c0 18.394 13.456 36.071 30.188 39.656l94.625 20.266c16.732 3.5841 39.906 1.1842 48.25-4.0856l61.875-39.072c8.3439-5.2698 15.062-24.309 15.062-42.704v-94.421c0-15.448-4.2376-41.878-25.031-44.908l-81.406-19.552c-5.8148-1.3955-12.537-2.0292-19.406-1.9455z"/>
   </g>
   <path id="path4398" fill="#e9e31c" d="m408.52 584.43c-0.33786 0.00415-0.66144 0.024902-1 0.03241-12.659 0.28076-25.706 2.9438-34.312 7.4577l-62.719 32.879c-13.518 7.0894-26.125 36.241-26.125 51.977v94.421c0 18.394 13.456 36.071 30.188 39.656l94.625 20.266c16.732 3.5841 39.906 1.1842 48.25-4.0856l61.875-39.072c8.3439-5.2698 15.062-24.309 15.062-42.704v-94.421c0-15.448-4.2376-41.878-25.031-44.908l-81.406-19.552c-5.8148-1.3955-12.537-2.0292-19.406-1.9454z"/>
   <path id="path4400" fill="url(#linearGradient4406)" d="m314.42 650l94.896 20.328c16.649 3.5664 30.052 19.744 30.052 36.273v101.16c0 16.529-13.403 26.964-30.052 23.398l-94.896-20.328c-16.649-3.5664-30.052-19.744-30.052-36.273v-101.16c0-16.529 13.403-26.964 30.052-23.398z"/>
   <path id="path4402" fill="url(#linearGradient4408)" d="m427.75 586.34l81.767 19.624c16.691 4.0056 19.505 12.802 6.31 19.722l-63.897 33.512c-13.195 6.9202-37.254 9.2667-53.945 5.261l-81.767-19.624c-16.691-4.0056-19.505-12.802-6.3099-19.722l63.897-33.512c13.195-6.9202 37.254-9.2667 53.945-5.261z"/>
   <path id="path4404" fill="url(#linearGradient4410)" d="m456.96 666.51l62.821-39.676c8.0827-5.1048 14.59 4.0921 14.59 20.621v101.16c0 16.529-6.507 33.945-14.59 39.05l-62.821 39.676c-8.0827 5.1047-14.59-4.0922-14.59-20.621v-101.16c0-16.529 6.507-33.945 14.59-39.05z"/>
  </g>
  <g id="use4370" transform="matrix(.28240 .46926 -0.504 .30169 554.24 106.21)">
   <g fill-opacity=".376">
    <path id="path4374" d="m138.68 604.78c-0.33786 0.004089-0.66147 0.024902-1 0.03241-12.659 0.28076-25.706 2.9437-34.312 7.4578l-62.719 32.879c-13.518 7.0895-26.125 36.241-26.125 51.977v94.421c0 18.394 13.456 36.071 30.188 39.656l94.625 20.266c16.732 3.5842 39.906 1.1843 48.25-4.0855l61.875-39.072c8.3438-5.2698 15.062-24.309 15.062-42.703v-94.421c0-15.448-4.2376-41.878-25.031-44.908l-81.406-19.552c-5.8149-1.3955-12.537-2.0293-19.406-1.9455z"/>
    <path id="path4376" d="m135.37 607.43c-0.33783 0.00415-0.66144 0.024963-1 0.032471-12.659 0.28076-25.706 2.9437-34.312 7.4577l-62.719 32.879c-13.518 7.0895-26.125 36.241-26.125 51.977v94.421c0 18.394 13.456 36.071 30.188 39.656l94.625 20.266c16.732 3.5842 39.906 1.1843 48.25-4.0855l61.875-39.072c8.3438-5.2698 15.062-24.309 15.062-42.704v-94.421c0-15.448-4.2376-41.878-25.031-44.908l-81.406-19.552c-5.8148-1.3955-12.537-2.0293-19.406-1.9456z"/>
   </g>
   <path id="path4378" fill="#15e8e3" d="m132.05 610.07c-0.33786 0.00415-0.66144 0.024902-1 0.032471-12.659 0.28076-25.706 2.9437-34.312 7.4576l-62.719 32.879c-13.518 7.0895-26.125 36.241-26.125 51.977v94.421c0 18.394 13.456 36.071 30.188 39.656l94.625 20.266c16.732 3.5841 39.906 1.1842 48.25-4.0856l61.875-39.072c8.3438-5.2697 15.062-24.309 15.062-42.703v-94.421c0-15.448-4.2376-41.878-25.031-44.908l-81.406-19.552c-5.8148-1.3955-12.537-2.0292-19.406-1.9455z"/>
   <path id="path4380" fill="url(#linearGradient4386)" d="m37.949 678.64l94.896 20.328c16.649 3.5664 30.052 19.744 30.052 36.273v101.16c0 16.529-13.403 26.964-30.052 23.398l-94.896-20.328c-16.649-3.5663-30.052-19.744-30.052-36.273v-101.16c0-16.529 13.403-26.964 30.052-23.398z"/>
   <path id="path4382" fill="url(#linearGradient4388)" d="m151.28 611.98l81.767 19.624c16.691 4.0056 19.505 12.802 6.31 19.722l-63.897 33.512c-13.195 6.9202-37.254 9.2666-53.945 5.261l-81.767-19.624c-16.691-4.0056-19.505-12.802-6.3099-19.722l63.897-33.512c13.195-6.9202 37.254-9.2666 53.945-5.261z"/>
   <path id="path4384" fill="url(#linearGradient4390)" d="m180.49 692.15l62.821-39.676c8.0827-5.1049 14.59 4.092 14.59 20.621v101.16c0 16.529-6.507 33.945-14.59 39.05l-62.821 39.676c-8.0827 5.1048-14.59-4.0921-14.59-20.621v-101.16c0-16.529 6.507-33.945 14.59-39.05z"/>
  </g>
 </g>
</svg>
